<svg width="865" height="205" viewBox="0 0 865 205" fill="none" xmlns="http://www.w3.org/2000/svg">
<path d="M300.138 73.5981L333.065 149.175H319.122L311.56 131.068H276.19L268.47 149.175H255L287.927 73.5981H300.138ZM306.754 119.417L293.835 89.422L280.995 119.417H306.754Z" fill="white"/>
<path d="M355.2 117.291V149.175H342.281V92.6497H355.2V101.467C359.691 94.8539 365.599 91.5476 372.846 91.5476C379.148 91.5476 384.032 93.5158 387.576 97.4521C391.121 101.388 392.933 106.663 392.933 113.276V149.254H380.014V117.134C380.014 107.923 375.997 103.357 367.962 103.357C364.181 103.357 361.109 104.616 358.745 107.135C356.382 109.655 355.2 112.882 355.2 117.291Z" fill="white"/>
<path d="M462.017 149.175H449.098V139.728C444.136 146.814 437.676 150.356 429.877 150.356C422.788 150.356 416.801 147.758 411.838 142.641C406.403 137.13 403.724 129.887 403.724 120.912C403.724 111.938 406.403 104.616 411.76 99.1054C416.722 94.0669 422.788 91.4689 429.956 91.4689C437.676 91.4689 444.057 94.7755 449.177 101.388V71H462.096V149.175H462.017ZM449.335 120.912C449.335 115.559 447.68 111.15 444.45 107.608C441.299 104.301 437.519 102.648 433.029 102.648C428.46 102.648 424.678 104.223 421.606 107.45C418.377 110.836 416.801 115.323 416.801 120.834C416.801 126.266 418.376 130.675 421.527 133.981C424.678 137.366 428.538 139.02 433.029 139.02C437.519 139.02 441.378 137.366 444.608 133.902C447.838 130.439 449.335 126.266 449.335 120.912Z" fill="white"/>
<path d="M488.879 127.604V149.097H475.96V92.5711H488.879V105.325C492.897 95.7201 499.514 91.0753 508.888 91.5476V105.246H508.1C502.271 105.246 497.623 107.135 494.236 110.835C490.691 114.772 488.879 120.361 488.879 127.604Z" fill="white"/>
<path d="M574.034 120.913C574.034 129.1 571.12 136.107 565.369 141.854C559.619 147.601 552.372 150.435 543.785 150.435C535.199 150.435 528.109 147.601 522.359 141.854C516.687 136.185 513.773 129.258 513.773 121.07C513.773 112.883 516.687 105.876 522.438 100.129C528.188 94.3819 535.356 91.469 543.943 91.469C552.529 91.469 559.619 94.3031 565.369 100.05C571.12 105.718 574.034 112.725 574.034 120.913ZM561.037 121.07C561.037 115.953 559.383 111.623 556.153 108.08C552.844 104.538 548.748 102.806 543.785 102.806C538.744 102.806 534.648 104.538 531.497 108.002C528.346 111.466 526.77 115.795 526.77 120.913C526.77 126.03 528.424 130.36 531.654 133.903C534.884 137.445 538.98 139.177 544.021 139.177C549.142 139.177 553.317 137.366 556.547 133.824C559.54 130.517 561.037 126.266 561.037 121.07Z" fill="white"/>
<path d="M632.011 101.389C637.053 94.7755 643.433 91.4689 651.153 91.4689C657.376 91.4689 662.181 93.3584 665.726 97.1372C669.271 100.916 671.004 106.269 671.004 113.119V149.175H658.085V117.055C658.085 107.844 654.304 103.278 646.663 103.278C643.039 103.278 640.125 104.538 637.919 106.978C635.713 109.419 634.61 112.882 634.61 117.291V149.175H621.691V116.976C621.691 112.646 620.668 109.261 618.698 106.821C616.729 104.459 613.893 103.199 610.269 103.199C606.646 103.199 603.731 104.459 601.525 106.978C599.32 109.497 598.217 112.961 598.217 117.291V149.097H585.298V92.5712H598.217V101.152C602.943 94.6968 608.694 91.3901 615.468 91.3901C623.109 91.4689 628.703 94.7755 632.011 101.389Z" fill="white"/>
<path d="M694.321 125.479C695.03 129.966 696.842 133.509 699.756 136.028C702.671 138.547 706.295 139.807 710.548 139.807C716.141 139.807 721.183 137.524 725.831 133.036L733.393 139.807C727.564 146.892 719.843 150.435 710.312 150.435C702.041 150.435 695.109 147.68 689.595 142.169C684.081 136.658 681.323 129.573 681.323 120.991C681.323 112.725 683.923 105.718 689.122 100.05C694.321 94.3818 700.938 91.469 708.894 91.469C717.48 91.469 724.334 94.5393 729.218 100.601C733.708 106.191 735.992 113.276 735.992 122.015C735.992 122.645 735.914 123.825 735.756 125.557H694.321V125.479ZM694.242 116.898H723.231C722.837 112.568 721.34 108.946 718.82 106.191C716.299 103.435 712.99 102.018 708.894 102.018C704.955 102.018 701.726 103.357 699.047 106.112C696.369 108.946 694.794 112.489 694.242 116.898Z" fill="white"/>
<path d="M802.557 149.175H789.638V139.728C784.675 146.814 778.215 150.356 770.417 150.356C763.327 150.356 757.34 147.758 752.378 142.641C746.942 137.13 744.264 129.887 744.264 120.912C744.264 111.938 746.942 104.616 752.299 99.1054C757.262 94.0669 763.327 91.4689 770.496 91.4689C778.215 91.4689 784.596 94.7755 789.716 101.388V71H802.635V149.175H802.557ZM789.795 120.912C789.795 115.559 788.141 111.15 784.911 107.608C781.76 104.301 777.979 102.648 773.489 102.648C768.92 102.648 765.139 104.223 762.067 107.45C758.837 110.836 757.262 115.323 757.262 120.834C757.262 126.266 758.837 130.675 761.988 133.981C765.139 137.366 768.999 139.02 773.489 139.02C777.979 139.02 781.839 137.366 785.069 133.902C788.299 130.439 789.795 126.266 789.795 120.912Z" fill="white"/>
<path d="M863.922 149.175H851.082V142.248C846.513 147.68 840.447 150.356 832.806 150.356C827.213 150.356 822.487 148.86 818.784 145.869C814.688 142.641 812.719 138.311 812.719 132.958V132.721C812.719 126.817 814.924 122.251 819.257 119.023C823.353 116.032 828.789 114.536 835.642 114.536C841.156 114.536 846.355 115.323 851.239 116.898V115.48C851.239 107.45 846.591 103.357 837.375 103.357C832.255 103.357 826.898 104.537 821.226 106.899L817.681 96.5076C824.692 93.3585 831.861 91.7839 839.187 91.7839C855.73 91.7839 864 99.7353 864 115.638V149.175H863.922ZM851.397 128.707V125.164C847.537 123.668 843.204 122.881 838.478 122.881C829.892 122.881 825.559 125.872 825.559 132.013V132.249C825.559 134.847 826.583 136.815 828.631 138.39C830.679 139.964 833.279 140.673 836.43 140.673C840.762 140.673 844.386 139.571 847.143 137.366C849.979 135.083 851.397 132.171 851.397 128.707Z" fill="white"/>
<mask id="mask0_202_20803" style="mask-type:alpha" maskUnits="userSpaceOnUse" x="0" y="0" width="205" height="205">
<path d="M205 167.444L180.057 70.4419L106.286 0V55.823L154.267 142.079L205 167.444ZM98.7143 55.823V0L24.9432 70.4419L0 167.444L50.7332 142.079L98.7143 55.823ZM52.0283 148.99L0.996219 174.554L102.488 205L203.979 174.554L153.233 149.189L52.0283 148.99Z" fill="#231F20"/>
</mask>
<g mask="url(#mask0_202_20803)">
<circle cx="104" cy="114" r="122" fill="white"/>
<g filter="url(#filter0_f_202_20803)">
<path d="M226 44C226 96.4671 183.467 139 131 139C78.5329 139 36 96.4671 36 44C36 -8.46705 78.5329 -51 131 -51C183.467 -51 226 -8.46705 226 44Z" fill="#FF002E"/>
</g>
<g filter="url(#filter1_f_202_20803)">
<circle cx="48" cy="155" r="95" fill="#FF002E"/>
</g>
<g filter="url(#filter2_f_202_20803)">
<circle cx="217" cy="172" r="95" fill="#FFB900"/>
</g>
<g filter="url(#filter3_f_202_20803)">
<circle cx="-7" cy="50" r="95" fill="#2280FF"/>
</g>
</g>
<defs>
<filter id="filter0_f_202_20803" x="-54" y="-141" width="370" height="370" filterUnits="userSpaceOnUse" color-interpolation-filters="sRGB">
<feFlood flood-opacity="0" result="BackgroundImageFix"/>
<feBlend mode="normal" in="SourceGraphic" in2="BackgroundImageFix" result="shape"/>
<feGaussianBlur stdDeviation="45" result="effect1_foregroundBlur_202_20803"/>
</filter>
<filter id="filter1_f_202_20803" x="-137" y="-30" width="370" height="370" filterUnits="userSpaceOnUse" color-interpolation-filters="sRGB">
<feFlood flood-opacity="0" result="BackgroundImageFix"/>
<feBlend mode="normal" in="SourceGraphic" in2="BackgroundImageFix" result="shape"/>
<feGaussianBlur stdDeviation="45" result="effect1_foregroundBlur_202_20803"/>
</filter>
<filter id="filter2_f_202_20803" x="32" y="-13" width="370" height="370" filterUnits="userSpaceOnUse" color-interpolation-filters="sRGB">
<feFlood flood-opacity="0" result="BackgroundImageFix"/>
<feBlend mode="normal" in="SourceGraphic" in2="BackgroundImageFix" result="shape"/>
<feGaussianBlur stdDeviation="45" result="effect1_foregroundBlur_202_20803"/>
</filter>
<filter id="filter3_f_202_20803" x="-192" y="-135" width="370" height="370" filterUnits="userSpaceOnUse" color-interpolation-filters="sRGB">
<feFlood flood-opacity="0" result="BackgroundImageFix"/>
<feBlend mode="normal" in="SourceGraphic" in2="BackgroundImageFix" result="shape"/>
<feGaussianBlur stdDeviation="45" result="effect1_foregroundBlur_202_20803"/>
</filter>
</defs>
</svg>
