<svg width="137" height="23" viewBox="0 0 137 23" fill="none" xmlns="http://www.w3.org/2000/svg">
<path d="M36.876 17.878C41.2746 17.878 43.9138 15.7861 43.9138 12.2867V11.9544H39.8084V12.2867C39.8084 13.7725 39.1046 14.359 36.9346 14.359C34.2759 14.359 33.5525 13.7334 33.5525 11.1333C33.5525 8.5332 34.2759 7.90762 36.9346 7.90762C39.1046 7.90762 39.8084 8.49411 39.8084 9.97988V10.3122H43.9138V9.97988C43.9138 6.48049 41.2746 4.38867 36.876 4.38867C32.3209 4.38867 29.6426 7.04743 29.6426 11.1333C29.6426 15.2192 32.3209 17.878 36.876 17.878Z" fill="white"/>
<path d="M48.5575 17.6825V12.7559H54.657V17.6825H58.3324V4.58417H54.657V9.45204H48.5575V4.58417H44.8822V17.6825H48.5575Z" fill="white"/>
<path d="M62.8492 17.6825L63.8658 15.2583H70.0826L71.0797 17.6825H75.3024L69.633 4.58417H64.3741L58.7243 17.6825H62.8492ZM66.0163 10.1167L66.8569 7.90762H67.1111L67.9713 10.1167L68.7337 11.9544H65.2539L66.0163 10.1167Z" fill="white"/>
<path d="M79.3712 17.6825V4.58417H75.6958V17.6825H79.3712Z" fill="white"/>
<path d="M84.2204 17.6825V12.5604L84.064 10.0581H84.3182L85.9799 12.6386L89.8507 17.6825H93.7607V4.58417H90.0853V9.64754L90.2613 12.5018H90.0071L88.0912 9.49114L84.455 4.58417H80.5451V17.6825H84.2204Z" fill="white"/>
<path d="M98.6154 17.6825V13.1274H106.357V9.84303H98.6154V7.88806H106.65V4.58417H94.9401V17.6825H98.6154Z" fill="white"/>
<path d="M118.858 17.6825V14.3786H111.292V4.58417H107.617V17.6825H118.858Z" fill="white"/>
<path d="M123.511 17.6825V4.58417H119.835V17.6825H123.511Z" fill="white"/>
<path d="M128.36 17.6825V14.3786H131.938C135.046 14.3786 137.001 12.58 137.001 9.47159C137.001 6.36319 135.046 4.58417 131.938 4.58417H124.685V17.6825H128.36ZM131.527 7.88806C132.817 7.88806 133.345 8.14221 133.345 9.47159C133.345 10.8205 132.817 11.0747 131.527 11.0747H128.36V7.88806H131.527Z" fill="white"/>
<g clip-path="url(#clip0_908_518)">
<path d="M23.3084 0V9.92371C23.3084 11.6879 22.7502 13.397 21.7427 14.8029C21.4295 15.2439 21.0755 15.6436 20.6807 16.0158L20.6535 16.0295H15.9971V6.83633H11.6811H7.32424H6.94301H2.64062L2.69509 6.7812L6.34395 3.34925L7.69185 2.09501C9.21674 0.661581 11.0956 0 13.1651 0H23.3084Z" fill="url(#paint0_linear_908_518)"/>
<path d="M20.6542 16.0432L20.6406 16.057L20.627 16.0708L20.3819 16.3051L19.4561 17.1872L16.0931 20.3435L15.7663 20.6467C14.2414 22.0663 12.24 22.8382 10.1841 22.8382H0V18.4001L0.0136152 16.0294L0.0408455 12.8731C0.0544606 10.5714 0.993906 8.39367 2.65495 6.82242H6.95734H6.97096V16.0294H20.6542V16.0432Z" fill="url(#paint1_linear_908_518)"/>
</g>
<defs>
<linearGradient id="paint0_linear_908_518" x1="13.4635" y1="-0.978988" x2="12.1272" y2="24.2075" gradientUnits="userSpaceOnUse">
<stop stop-color="#48EF8A"/>
<stop offset="0.5458" stop-color="#43B4A6"/>
<stop offset="0.6918" stop-color="#2D796F"/>
<stop offset="0.9662"/>
</linearGradient>
<linearGradient id="paint1_linear_908_518" x1="10.9419" y1="24.0876" x2="7.43398" y2="-1.72076" gradientUnits="userSpaceOnUse">
<stop stop-color="#FF5F96"/>
<stop offset="0.6103" stop-color="#FF33AF"/>
<stop offset="1"/>
</linearGradient>
<clipPath id="clip0_908_518">
<rect width="23.3091" height="22.8521" fill="white"/>
</clipPath>
</defs>
</svg>
