<svg viewBox="0 0 121 32" fill="none" xmlns="http://www.w3.org/2000/svg">
  <path d="m62.408 13-.012-7.188-3.516 6.072h-.3l-3.516-6.048V13h-.6V4.6h.516l3.756 6.492L62.492 4.6h.504l.012 8.4h-.6Zm7.297.06c-1.064 0-1.892-.308-2.484-.924-.584-.616-.876-1.516-.876-2.7V4.6h.612v4.812c0 1.032.236 1.804.708 2.316.472.512 1.156.768 2.052.768.888 0 1.568-.256 2.04-.768s.708-1.284.708-2.316V4.6h.612v4.836c0 1.184-.296 2.084-.888 2.7-.592.616-1.42.924-2.484.924Zm10.271 0c-.824 0-1.568-.184-2.232-.552a4.2 4.2 0 0 1-1.572-1.536 4.248 4.248 0 0 1-.564-2.172c0-.8.188-1.524.564-2.172a4.11 4.11 0 0 1 1.572-1.524c.664-.376 1.408-.564 2.232-.564.824 0 1.568.184 2.232.552a4.023 4.023 0 0 1 1.56 1.524c.384.648.576 1.376.576 2.184 0 .808-.192 1.536-.576 2.184a4.023 4.023 0 0 1-1.56 1.524c-.664.368-1.408.552-2.232.552Zm0-.564c.704 0 1.34-.16 1.908-.48a3.549 3.549 0 0 0 1.344-1.32c.328-.568.492-1.2.492-1.896s-.164-1.324-.492-1.884a3.523 3.523 0 0 0-1.344-1.332 3.82 3.82 0 0 0-1.908-.48c-.704 0-1.344.16-1.92.48a3.523 3.523 0 0 0-1.344 1.332A3.658 3.658 0 0 0 76.22 8.8c0 .696.164 1.328.492 1.896.328.56.776 1 1.344 1.32.576.32 1.216.48 1.92.48ZM93.787 4.6V13h-.504l-5.724-7.296V13h-.612V4.6h.516l5.712 7.296V4.6h.612Zm-32.483 15V28H60.8l-5.724-7.296V28h-.612v-8.4h.516l5.712 7.296V19.6h.612Zm9.21 7.848V28h-5.797v-8.4h5.616v.552H65.33v3.312h4.476v.54H65.33v3.444h5.184Zm4.319-7.296h-3.024V19.6h6.66v.552h-3.024V28h-.612v-7.848Zm16.83-.552L88.82 28h-.648l-2.604-7.536L82.951 28h-.648l-2.856-8.4h.648l2.556 7.56 2.628-7.56h.588l2.616 7.572 2.58-7.572h.6Zm5.726 8.46c-.824 0-1.568-.184-2.232-.552a4.2 4.2 0 0 1-1.572-1.536 4.248 4.248 0 0 1-.564-2.172c0-.8.188-1.524.564-2.172a4.11 4.11 0 0 1 1.572-1.524c.664-.376 1.408-.564 2.232-.564.824 0 1.568.184 2.232.552a4.025 4.025 0 0 1 1.56 1.524c.384.648.576 1.376.576 2.184 0 .808-.192 1.536-.576 2.184a4.025 4.025 0 0 1-1.56 1.524c-.664.368-1.408.552-2.232.552Zm0-.564c.704 0 1.34-.16 1.908-.48a3.548 3.548 0 0 0 1.344-1.32c.328-.568.492-1.2.492-1.896s-.164-1.324-.492-1.884a3.522 3.522 0 0 0-1.344-1.332 3.82 3.82 0 0 0-1.908-.48c-.704 0-1.344.16-1.92.48a3.523 3.523 0 0 0-1.344 1.332 3.658 3.658 0 0 0-.492 1.884c0 .696.164 1.328.492 1.896.328.56.776 1 1.344 1.32.576.32 1.216.48 1.92.48Zm12.803.504-2.004-2.808c-.296.04-.568.06-.816.06h-2.4V28h-.612v-8.4h3.012c1.056 0 1.884.252 2.484.756.6.496.9 1.188.9 2.076 0 .664-.172 1.224-.516 1.68-.336.448-.82.764-1.452.948l2.1 2.94h-.696Zm-2.82-3.288c.896 0 1.58-.196 2.052-.588.472-.4.708-.964.708-1.692s-.236-1.288-.708-1.68c-.472-.4-1.156-.6-2.052-.6h-2.4v4.56h2.4Zm8.601-.852-1.884 1.932V28h-.612v-8.4h.612V25l5.244-5.4h.744l-3.696 3.816L120.329 28h-.744l-3.612-4.14Z" fill="#5551FF"/>
  <path d="M.59 20.728a.59.59 0 1 0 0-1.18.59.59 0 0 0 0 1.18Zm8.2-.714a.59.59 0 1 0 0-1.18.59.59 0 0 0 0 1.18Zm2.369 3.377a.59.59 0 1 0 0-1.18.59.59 0 0 0 0 1.18Zm6.991-2.473a.59.59 0 1 0 0-1.18.59.59 0 0 0 0 1.18ZM1.065 2.74a.59.59 0 1 0 0-1.18.59.59 0 0 0 0 1.18Zm.619 7.457a.913.913 0 1 0 0-1.826.913.913 0 0 0 0 1.826Zm14.839 8.562a.761.761 0 1 0 0-1.522.761.761 0 0 0 0 1.522ZM1.18 28.033a.761.761 0 1 0 0-1.522.761.761 0 0 0 0 1.522Zm5.869-4.043a.837.837 0 1 0 0-1.674.837.837 0 0 0 0 1.674Zm6.469 2.854a.666.666 0 1 0 0-1.331.666.666 0 0 0 0 1.331Zm-9.951 4.823a.999.999 0 1 0 0-1.997.999.999 0 0 0 0 1.997ZM7.543 6.944a1.532 1.532 0 1 0 0-3.063 1.532 1.532 0 0 0 0 3.063ZM5.165 3.348a1.674 1.674 0 1 0 0-3.348 1.674 1.674 0 0 0 0 3.348Zm.618 7.363a1.436 1.436 0 1 0 0-2.873 1.436 1.436 0 0 0 0 2.873Zm4.129-.637a1.513 1.513 0 1 0 0-3.025 1.513 1.513 0 0 0 0 3.025Zm-5.85 4.014a1.446 1.446 0 1 0 0-2.892 1.446 1.446 0 0 0 0 2.892Zm4.1-.409a1.38 1.38 0 1 0 0-2.759 1.38 1.38 0 0 0 0 2.759Zm4.128-.542a1.199 1.199 0 1 0 0-2.397 1.199 1.199 0 0 0 0 2.397Zm-1.74 3.748a1.199 1.199 0 1 0 0-2.397 1.199 1.199 0 0 0 0 2.397Zm-4.138.361a1.199 1.199 0 1 0 0-2.397 1.199 1.199 0 0 0 0 2.397ZM4.68 21.137a1.37 1.37 0 1 0 0-2.74 1.37 1.37 0 0 0 0 2.74Zm-1.75 3.586a1.218 1.218 0 1 0 0-2.435 1.218 1.218 0 0 0 0 2.435Zm12.337-.942a1.36 1.36 0 1 0 0-2.72 1.36 1.36 0 0 0 0 2.72Zm-2.377-3.348a1.37 1.37 0 1 0 0-2.74 1.37 1.37 0 0 0 0 2.74ZM5.289 28.28a1.37 1.37 0 1 0 0-2.739 1.37 1.37 0 0 0 0 2.74ZM2.283 17.417a1.018 1.018 0 1 0 0-2.035 1.018 1.018 0 0 0 0 2.035Zm12.376-1.084a1.018 1.018 0 1 0 0-2.036 1.018 1.018 0 0 0 0 2.036ZM3.434 7.04a1.512 1.512 0 1 0 0-3.026 1.512 1.512 0 0 0 0 3.025ZM39.41 20.728a.59.59 0 1 0 0-1.18.59.59 0 0 0 0 1.18Zm-8.2-.714a.59.59 0 1 0 0-1.18.59.59 0 0 0 0 1.18Zm-2.368 3.377a.59.59 0 1 0 0-1.18.59.59 0 0 0 0 1.18Zm-6.992-2.473a.59.59 0 1 0 0-1.18.59.59 0 0 0 0 1.18ZM38.935 2.74a.59.59 0 1 0 0-1.18.59.59 0 0 0 0 1.18Zm-.619 7.457a.913.913 0 1 0 0-1.826.913.913 0 0 0 0 1.826Zm-14.839 8.562a.761.761 0 1 0 0-1.522.761.761 0 0 0 0 1.522Zm15.343 9.274a.761.761 0 1 0 0-1.522.761.761 0 0 0 0 1.522Zm-5.868-4.043a.837.837 0 1 0 0-1.674.837.837 0 0 0 0 1.674Zm-6.47 2.854a.666.666 0 1 0 0-1.332.666.666 0 0 0 0 1.332Zm9.951 4.823a.999.999 0 1 0 0-1.997.999.999 0 0 0 0 1.997ZM32.457 6.944a1.531 1.531 0 1 0 0-3.063 1.531 1.531 0 0 0 0 3.063Zm2.378-3.596a1.674 1.674 0 1 0 0-3.348 1.674 1.674 0 0 0 0 3.348Zm-.618 7.363a1.436 1.436 0 1 0 0-2.873 1.436 1.436 0 0 0 0 2.873Zm-4.129-.637a1.513 1.513 0 1 0 0-3.025 1.513 1.513 0 0 0 0 3.025Zm5.851 4.014a1.446 1.446 0 1 0 0-2.892 1.446 1.446 0 0 0 0 2.892Zm-4.101-.409a1.38 1.38 0 1 0 0-2.759 1.38 1.38 0 0 0 0 2.759Zm-4.128-.542a1.199 1.199 0 1 0 0-2.397 1.199 1.199 0 0 0 0 2.397Zm1.74 3.748a1.199 1.199 0 1 0 0-2.397 1.199 1.199 0 0 0 0 2.397Zm4.139.361a1.199 1.199 0 1 0 0-2.397 1.199 1.199 0 0 0 0 2.397Zm1.731 3.891a1.37 1.37 0 1 0 0-2.74 1.37 1.37 0 0 0 0 2.74Zm1.75 3.586a1.218 1.218 0 1 0 0-2.435 1.218 1.218 0 0 0 0 2.435Zm-12.338-.942a1.36 1.36 0 1 0 0-2.72 1.36 1.36 0 0 0 0 2.72Zm2.378-3.348a1.37 1.37 0 1 0 .001-2.74 1.37 1.37 0 0 0 0 2.74Zm7.601 7.847a1.37 1.37 0 1 0 0-2.74 1.37 1.37 0 0 0 0 2.74Zm3.006-10.863a1.018 1.018 0 1 0 0-2.035 1.018 1.018 0 0 0 0 2.035Zm-12.376-1.084a1.018 1.018 0 1 0 0-2.036 1.018 1.018 0 0 0 0 2.036ZM36.566 7.04a1.512 1.512 0 1 0 0-3.026 1.512 1.512 0 0 0 0 3.025Zm-18.93 19.975a1.199 1.199 0 1 0 0-2.397 1.199 1.199 0 0 0 0 2.397Zm4.728 0a1.199 1.199 0 1 0 0-2.397 1.199 1.199 0 0 0 0 2.397Zm-2.359-3.063a1.008 1.008 0 1 0 0-2.016 1.008 1.008 0 0 0 0 2.016Zm-4.109 6.269a.666.666 0 1 0 0-1.332.666.666 0 0 0 0 1.332Zm8.208 0a.666.666 0 1 0 0-1.332.666.666 0 0 0 0 1.332Zm-4.099.076a1.008 1.008 0 1 0 0-2.016 1.008 1.008 0 0 0 0 2.016Z" fill="#ffffff"/>
</svg>
